<svg width="757" height="258" viewBox="0 0 757 258" fill="none" xmlns="http://www.w3.org/2000/svg">
<path d="M26.42 33.6801H0.15C0.0671573 33.6801 0 33.7472 0 33.8301V150.89C0 150.973 0.0671573 151.04 0.15 151.04H26.42C26.5028 151.04 26.57 150.973 26.57 150.89V33.8301C26.57 33.7472 26.5028 33.6801 26.42 33.6801Z" fill="#F9D923"/>
<path d="M84.9802 151.04H60.4202C60.3202 151.04 60.2402 150.96 60.2402 150.86V33.8601C60.2402 33.7601 60.3202 33.6801 60.4202 33.6801H86.7502C86.8102 33.6801 86.8602 33.7101 86.8902 33.7501L147 108.38C147.06 108.46 147.18 108.47 147.26 108.41C147.3 108.37 147.33 108.32 147.33 108.27V33.8601C147.33 33.7601 147.41 33.6801 147.51 33.6801H172.07C172.17 33.6801 172.25 33.7601 172.25 33.8601V150.86C172.25 150.96 172.17 151.04 172.07 151.04H145.77C145.71 151.04 145.66 151.01 145.63 150.97L85.4902 76.3001C85.4302 76.2201 85.3102 76.2101 85.2302 76.2701C85.1902 76.3101 85.1602 76.3601 85.1602 76.4101V150.85C85.1602 150.95 85.0702 151.03 84.9702 151.03L84.9802 151.04Z" fill="#F9D923"/>
<path d="M295.859 128.87V150.8C295.859 150.93 295.749 151.04 295.619 151.04H206.029C205.899 151.04 205.789 150.93 205.789 150.8V33.91C205.789 33.78 205.899 33.67 206.029 33.67H232.259C232.389 33.67 232.499 33.78 232.499 33.91V128.4C232.499 128.53 232.609 128.64 232.739 128.64H295.619C295.749 128.64 295.859 128.75 295.859 128.88V128.87Z" fill="#F9D923"/>
<path d="M407.61 124.31L351.86 124.25C351.79 124.25 351.72 124.29 351.69 124.36L339.06 150.94C339.03 151.01 338.96 151.05 338.89 151.05H313.54C313.44 151.05 313.35 150.97 313.35 150.86C313.35 150.83 313.35 150.8 313.37 150.78L370.49 33.7901C370.52 33.7201 370.59 33.6801 370.66 33.6801H395.52C395.59 33.6801 395.66 33.7201 395.69 33.7901L450.31 150.78C450.36 150.87 450.31 150.99 450.22 151.03C450.19 151.04 450.16 151.05 450.14 151.05H420.09C420.01 151.05 419.94 151.01 419.91 150.94L407.79 124.43C407.76 124.36 407.69 124.32 407.61 124.32V124.31ZM362.84 101.39C362.79 101.49 362.84 101.62 362.94 101.67C362.97 101.68 363 101.69 363.03 101.69L397.01 101.87C397.12 101.87 397.22 101.78 397.22 101.66C397.22 101.63 397.22 101.6 397.2 101.58L380.4 64.9701C380.35 64.8701 380.23 64.8201 380.12 64.8701C380.08 64.8901 380.04 64.9201 380.02 64.9601L362.84 101.39Z" fill="#F9D923"/>
<path d="M736.13 0H488.94C477.54 0 468.3 9.24 468.3 20.64V163.77C468.3 175.17 477.54 184.41 488.94 184.41H736.13C747.53 184.41 756.77 175.17 756.77 163.77V20.64C756.77 9.24 747.53 0 736.13 0ZM601.48 151.04H502.6C502.44 151.04 502.32 150.92 502.32 150.76V127.51C502.32 126.92 502.56 126.68 502.93 126.27C523.57 103.01 544.21 79.76 564.86 56.5C564.99 56.35 564.95 56.28 564.76 56.27C551.85 55.99 542.23 55.95 535.9 56.13C530.26 56.3 524.36 56.09 519.63 56.18C514.54 56.27 509.44 56.27 504.35 56.18C504.09 56.18 503.96 56.05 503.96 55.79V34.13C503.96 33.83 504.11 33.68 504.41 33.68H599.96C600.12 33.68 600.26 33.81 600.26 33.98C600.09 40.85 600.05 47.72 600.14 54.6C600.17 56.6 600.56 57.41 599.14 59C578.62 82.07 558.12 105.17 537.62 128.29C537.42 128.52 537.47 128.63 537.77 128.63H601.42C601.68 128.63 601.81 128.76 601.81 129.02L601.83 150.69C601.83 150.92 601.71 151.03 601.48 151.03V151.04ZM723.69 150.8C723.69 150.93 723.58 151.04 723.45 151.04H628.83C628.7 151.04 628.59 150.93 628.59 150.8L628.57 33.91C628.57 33.78 628.68 33.67 628.81 33.67H720.04C720.17 33.67 720.28 33.78 720.28 33.91V55.88C720.28 56.01 720.17 56.12 720.04 56.12L655.53 56.26C655.4 56.26 655.29 56.37 655.29 56.5V78.36C655.29 78.49 655.4 78.6 655.53 78.6L715.3 78.62C715.43 78.62 715.54 78.73 715.54 78.86V100.8C715.54 100.93 715.43 101.04 715.3 101.04H655.53C655.4 101.04 655.29 101.15 655.29 101.28V128.4C655.29 128.53 655.4 128.64 655.53 128.64H723.46C723.59 128.64 723.7 128.75 723.7 128.88V150.81L723.69 150.8Z" fill="#F9D923"/>
<path d="M49.1055 230.722C49.1055 238.706 46.7066 245.24 41.9088 250.307C37.1111 255.373 30.9169 257.915 23.3444 257.915C20.3547 257.915 17.5083 257.432 14.805 256.483C12.0839 255.534 9.77455 254.263 7.82322 252.688C5.88979 251.112 4.31441 249.698 3.13287 248.445C1.93343 247.192 0.895106 245.903 0 244.596L9.48812 238.062C10.2579 239.19 11.1709 240.299 12.2092 241.374C13.2476 242.448 14.8229 243.558 16.8996 244.685C18.9941 245.813 21.1245 246.386 23.3444 246.386C27.7483 246.386 31.2392 244.99 33.7992 242.179C36.3592 239.369 37.6481 235.555 37.6481 230.74V193.36H49.0876V230.74L49.1055 230.722Z" fill="#EAECEF"/>
<path d="M74.132 201.649C80.5767 195.204 88.3284 192 97.3868 192C106.445 192 114.215 195.222 120.677 201.649C127.14 208.094 130.38 215.846 130.38 224.904C130.38 233.963 127.14 241.732 120.677 248.195C114.215 254.657 106.445 257.898 97.3868 257.898C88.3284 257.898 80.5767 254.657 74.132 248.195C67.6872 241.732 64.4648 233.963 64.4648 224.904C64.4648 215.846 67.6872 208.094 74.132 201.649ZM82.2774 240.067C86.4486 244.274 91.497 246.369 97.3868 246.369C103.277 246.369 108.343 244.274 112.55 240.067C116.757 235.86 118.851 230.812 118.851 224.904C118.851 218.996 116.757 213.948 112.55 209.741C108.343 205.534 103.295 203.439 97.3868 203.439C91.4791 203.439 86.4486 205.534 82.2774 209.741C78.1063 213.948 76.0117 218.996 76.0117 224.904C76.0117 230.812 78.1063 235.86 82.2774 240.067Z" fill="#EAECEF"/>
<path d="M192.448 223.293C194.829 224.421 197.085 226.283 199.197 228.843C201.31 231.403 202.366 234.571 202.366 238.313C202.366 243.254 200.63 247.479 197.139 250.97C193.648 254.461 189.459 256.197 184.571 256.197H146.744V193.683H182.871C187.579 193.683 191.589 195.33 194.901 198.642C198.213 201.954 199.86 205.964 199.86 210.672C199.86 213.536 199.072 216.061 197.497 218.28C195.921 220.482 194.238 222.165 192.448 223.293ZM187.973 211.585C187.973 209.49 187.239 207.736 185.789 206.304C184.321 204.872 182.584 204.156 180.561 204.156H157.933V218.907H180.561C182.656 218.907 184.41 218.191 185.842 216.759C187.275 215.327 187.991 213.59 187.991 211.567L187.973 211.585ZM182.423 245.742C184.75 245.742 186.737 244.919 188.367 243.29C189.996 241.661 190.819 239.673 190.819 237.346C190.819 235.019 189.996 233.05 188.367 231.438C186.72 229.827 184.75 229.022 182.423 229.022H157.915V245.742H182.423Z" fill="#EAECEF"/>
<path d="M247.461 219.802C250.147 220.644 252.313 221.36 253.942 221.95C255.571 222.541 257.54 223.418 259.85 224.582C262.159 225.746 263.931 226.945 265.22 228.163C266.509 229.38 267.619 230.955 268.568 232.853C269.517 234.768 270 236.845 270 239.119C270 242.466 269.266 245.366 267.816 247.837C266.348 250.307 264.343 252.223 261.783 253.566C259.223 254.908 256.412 255.911 253.369 256.555C250.326 257.218 247.014 257.54 243.451 257.54C234.393 257.54 225.853 255.248 217.869 250.648L223.687 241.428C230.669 245.241 237.4 247.157 243.899 247.157C253.315 247.157 258.024 244.686 258.024 239.727C258.024 238.42 257.648 237.239 256.914 236.201C256.162 235.162 254.998 234.231 253.387 233.426C251.776 232.62 250.272 231.958 248.876 231.457C247.479 230.955 245.528 230.311 243.022 229.541C242.896 229.487 242.807 229.451 242.717 229.451C242.628 229.451 242.538 229.416 242.449 229.362C242.359 229.308 242.252 229.272 242.144 229.272C239.226 228.377 236.989 227.661 235.431 227.124C233.874 226.587 231.904 225.746 229.488 224.582C227.071 223.418 225.245 222.219 223.992 221.002C222.739 219.784 221.629 218.191 220.644 216.222C219.659 214.253 219.176 212.051 219.176 209.598C219.176 204.532 221.271 200.45 225.442 197.353C229.971 194.077 236.38 192.43 244.669 192.43C252.957 192.43 260.816 194.721 268.819 199.322L263.179 208.273C256.502 204.585 250.147 202.724 244.132 202.724C239.889 202.724 236.684 203.314 234.464 204.46C232.262 205.624 231.153 207.181 231.153 209.15C231.153 210.225 231.457 211.227 232.048 212.14C232.638 213.071 233.301 213.823 234.017 214.414C234.733 215.004 235.879 215.649 237.454 216.329C239.029 217.01 240.336 217.529 241.339 217.851C242.359 218.173 243.935 218.674 246.083 219.319C246.745 219.498 247.211 219.641 247.515 219.766L247.461 219.802Z" fill="#EAECEF"/>
</svg>
